<svg width="36" height="37" viewBox="0 0 36 37" fill="none" xmlns="http://www.w3.org/2000/svg">
<rect y="0.891113" width="36" height="36" rx="5" fill="#212121"/>
<path d="M15.8608 17.8089C15.8608 17.8089 17.4696 17.6868 17.4696 15.7594C17.4696 13.8318 16.1534 12.8911 14.4862 12.8911H9V23.6627H14.4862C14.4862 23.6627 17.8353 23.7708 17.8353 20.4835C17.8353 20.4835 17.9813 17.8089 15.8608 17.8089ZM14.0913 14.8056H14.4862C14.4862 14.8056 15.2319 14.8056 15.2319 15.9264C15.2319 17.047 14.7934 17.2095 14.2959 17.2095H11.4173V14.8056H14.0913ZM14.3312 21.7483H11.4173V18.8697H14.4862C14.4862 18.8697 15.5977 18.8548 15.5977 20.349C15.5977 21.6089 14.7675 21.7388 14.3312 21.7483ZM22.302 15.6317C18.2475 15.6317 18.2511 19.7705 18.2511 19.7705C18.2511 19.7705 17.9729 23.8881 22.302 23.8881C22.302 23.8881 25.9095 24.0986 25.9095 21.0237H24.0542C24.0542 21.0237 24.1161 22.1817 22.3638 22.1817C22.3638 22.1817 20.5083 22.3087 20.5083 20.3077H25.9714C25.9714 20.3076 26.5691 15.6317 22.302 15.6317ZM20.4879 18.8697C20.4879 18.8697 20.7144 17.2094 22.3432 17.2094C23.9716 17.2094 23.9512 18.8697 23.9512 18.8697H20.4879ZM24.3834 14.8521H20.0337V13.5257H24.3834V14.8521Z" fill="white"/>
</svg>
