<svg width="34" height="34" viewBox="0 0 34 34" fill="none" xmlns="http://www.w3.org/2000/svg">
<rect width="34" height="34" rx="5" fill="#1B1B1B"/>
<path d="M21.1768 11.3593C20.9807 11.3593 20.7889 11.4175 20.6259 11.5264C20.4628 11.6354 20.3357 11.7903 20.2606 11.9715C20.1856 12.1527 20.1659 12.3521 20.2042 12.5444C20.2425 12.7368 20.3369 12.9135 20.4756 13.0522C20.6143 13.1909 20.791 13.2853 20.9833 13.3236C21.1757 13.3618 21.3751 13.3422 21.5563 13.2672C21.7375 13.1921 21.8924 13.065 22.0013 12.9019C22.1103 12.7388 22.1685 12.5471 22.1685 12.351C22.1685 12.088 22.064 11.8357 21.878 11.6498C21.692 11.4638 21.4398 11.3593 21.1768 11.3593V11.3593ZM24.9782 13.3592C24.9621 12.6735 24.8337 11.9951 24.5981 11.351C24.3879 10.7999 24.0609 10.3009 23.6394 9.88833C23.2302 9.46475 22.7301 9.13977 22.1767 8.93799C21.5343 8.69516 20.8552 8.56381 20.1686 8.54958C19.2926 8.5 19.0117 8.5 16.7639 8.5C14.5161 8.5 14.2351 8.5 13.3592 8.54958C12.6726 8.56381 11.9934 8.69516 11.351 8.93799C10.7987 9.14181 10.299 9.46651 9.88833 9.88833C9.46475 10.2975 9.13977 10.7977 8.93799 11.351C8.69516 11.9934 8.56381 12.6726 8.54958 13.3592C8.5 14.2351 8.5 14.5161 8.5 16.7639C8.5 19.0117 8.5 19.2926 8.54958 20.1686C8.56381 20.8552 8.69516 21.5343 8.93799 22.1767C9.13977 22.7301 9.46475 23.2302 9.88833 23.6394C10.299 24.0613 10.7987 24.386 11.351 24.5898C11.9934 24.8326 12.6726 24.964 13.3592 24.9782C14.2351 25.0278 14.5161 25.0278 16.7639 25.0278C19.0117 25.0278 19.2926 25.0278 20.1686 24.9782C20.8552 24.964 21.5343 24.8326 22.1767 24.5898C22.7301 24.388 23.2302 24.063 23.6394 23.6394C24.0628 23.2284 24.3901 22.7289 24.5981 22.1767C24.8337 21.5326 24.9621 20.8543 24.9782 20.1686C24.9782 19.2926 25.0278 19.0117 25.0278 16.7639C25.0278 14.5161 25.0278 14.2351 24.9782 13.3592V13.3592ZM23.4907 20.0694C23.4847 20.594 23.3897 21.1138 23.2097 21.6065C23.0778 21.9662 22.8658 22.2911 22.5899 22.5569C22.3219 22.83 21.9976 23.0415 21.6396 23.1767C21.1468 23.3566 20.6271 23.4516 20.1025 23.4576C19.2761 23.499 18.9703 23.5072 16.7969 23.5072C14.6235 23.5072 14.3178 23.5072 13.4914 23.4576C12.9467 23.4678 12.4044 23.384 11.8882 23.2097C11.5459 23.0676 11.2365 22.8567 10.9792 22.5899C10.7049 22.3245 10.4956 21.9992 10.3676 21.6396C10.1659 21.1397 10.054 20.6082 10.0371 20.0694C10.0371 19.2431 9.9875 18.9373 9.9875 16.7639C9.9875 14.5905 9.9875 14.2847 10.0371 13.4583C10.0408 12.9221 10.1387 12.3906 10.3263 11.8882C10.4718 11.5394 10.6951 11.2285 10.9792 10.9792C11.2302 10.695 11.5405 10.4694 11.8882 10.3181C12.3919 10.1363 12.9228 10.0413 13.4583 10.0371C14.2847 10.0371 14.5905 9.9875 16.7639 9.9875C18.9373 9.9875 19.2431 9.9875 20.0694 10.0371C20.594 10.0431 21.1138 10.1381 21.6065 10.3181C21.9821 10.4574 22.3191 10.684 22.5899 10.9792C22.8607 11.233 23.0723 11.5434 23.2097 11.8882C23.3934 12.3914 23.4885 12.9227 23.4907 13.4583C23.532 14.2847 23.5403 14.5905 23.5403 16.7639C23.5403 18.9373 23.532 19.2431 23.4907 20.0694ZM16.7639 12.5245C15.9258 12.5261 15.1069 12.7762 14.4109 13.243C13.7148 13.7098 13.1727 14.3725 12.8531 15.1473C12.5335 15.9221 12.4507 16.7742 12.6152 17.596C12.7798 18.4178 13.1842 19.1724 13.7774 19.7645C14.3706 20.3565 15.126 20.7595 15.9481 20.9224C16.7703 21.0853 17.6222 21.0009 18.3964 20.6798C19.1706 20.3587 19.8322 19.8153 20.2976 19.1183C20.7631 18.4213 21.0115 17.602 21.0115 16.7639C21.0126 16.2062 20.9034 15.6537 20.6903 15.1383C20.4771 14.623 20.1641 14.1548 19.7694 13.7608C19.3746 13.3668 18.9058 13.0548 18.3901 12.8426C17.8743 12.6304 17.3216 12.5223 16.7639 12.5245V12.5245ZM16.7639 19.5158C16.2196 19.5158 15.6876 19.3544 15.235 19.052C14.7825 18.7496 14.4298 18.3198 14.2215 17.817C14.0132 17.3141 13.9587 16.7608 14.0649 16.227C14.1711 15.6932 14.4332 15.2029 14.818 14.818C15.2029 14.4332 15.6932 14.1711 16.227 14.0649C16.7608 13.9587 17.3141 14.0132 17.817 14.2215C18.3198 14.4298 18.7496 14.7825 19.052 15.235C19.3544 15.6876 19.5158 16.2196 19.5158 16.7639C19.5158 17.1253 19.4446 17.4831 19.3063 17.817C19.168 18.1509 18.9653 18.4542 18.7098 18.7098C18.4542 18.9653 18.1509 19.168 17.817 19.3063C17.4831 19.4446 17.1253 19.5158 16.7639 19.5158V19.5158Z" fill="white"/>
</svg>
