<svg width="125" height="21" viewBox="0 0 125 21" fill="none" xmlns="http://www.w3.org/2000/svg">
<path d="M0.35199 20.0001V0.400117H4.66399V8.96812L12.616 0.400117H17.824L9.84399 8.71612L18.188 20.0001H13.008L6.93199 11.6561L4.66399 14.0081V20.0001H0.35199Z" fill="white"/>
<path d="M28.571 20.3081C25.9016 20.3081 23.8203 19.5708 22.327 18.0961C20.8336 16.6028 20.087 14.4375 20.087 11.6001V0.400117H24.399V11.4881C24.399 13.0561 24.763 14.2601 25.491 15.1001C26.2376 15.9215 27.283 16.3321 28.627 16.3321C29.971 16.3321 31.007 15.9308 31.735 15.1281C32.4816 14.3255 32.855 13.1588 32.855 11.6281V0.400117H37.167V11.4601C37.167 14.3721 36.4016 16.5748 34.871 18.0681C33.359 19.5615 31.259 20.3081 28.571 20.3081Z" fill="white"/>
<path d="M41.559 20.0001V0.400117H45.535L54.719 12.4681V0.400117H58.975V20.0001H55.307L45.815 7.54012V20.0001H41.559Z" fill="white"/>
<path d="M63.6801 20.0001V0.400117H71.3241C74.3855 0.400117 76.8868 1.33345 78.8281 3.20012C80.7695 5.04812 81.7401 7.38145 81.7401 10.2001C81.7401 13.0001 80.7601 15.3335 78.8001 17.2001C76.8588 19.0668 74.3668 20.0001 71.3241 20.0001H63.6801ZM67.9921 16.1081H71.3241C73.0975 16.1081 74.5255 15.5668 75.6081 14.4841C76.6908 13.3828 77.2321 11.9548 77.2321 10.2001C77.2321 8.46412 76.6814 7.04545 75.5801 5.94412C74.4975 4.84278 73.0788 4.29212 71.3241 4.29212H67.9921V16.1081Z" fill="white"/>
<path d="M89.2664 20.0001V12.2721L81.7344 0.400117H86.7744L91.4504 8.26812L96.2104 0.400117H101.11L93.5784 12.1881V20.0001H89.2664Z" fill="white"/>
<path d="M109.781 20.2801C106.57 20.2801 103.798 19.2348 101.465 17.1441L104.013 14.0921C105.936 15.6788 107.886 16.4721 109.865 16.4721C110.742 16.4721 111.433 16.3041 111.937 15.9681C112.441 15.6321 112.693 15.1655 112.693 14.5681C112.693 14.0081 112.432 13.5601 111.909 13.2241C111.386 12.8695 110.332 12.4868 108.745 12.0761C107.625 11.7961 106.72 11.5255 106.029 11.2641C105.338 10.9841 104.676 10.6201 104.041 10.1721C103.425 9.72412 102.968 9.16412 102.669 8.49212C102.389 7.80145 102.249 6.98012 102.249 6.02812C102.249 4.25478 102.884 2.82678 104.153 1.74412C105.441 0.661451 107.093 0.120117 109.109 0.120117C111.89 0.120117 114.317 0.950784 116.389 2.61212L114.149 5.86012C112.301 4.57212 110.602 3.92812 109.053 3.92812C108.25 3.92812 107.625 4.09612 107.177 4.43212C106.748 4.74945 106.533 5.16945 106.533 5.69212C106.533 6.32678 106.804 6.80278 107.345 7.12012C107.886 7.43745 109.025 7.82012 110.761 8.26812C112.889 8.82812 114.457 9.54678 115.465 10.4241C116.473 11.3015 116.977 12.5615 116.977 14.2041C116.977 16.1081 116.314 17.6015 114.989 18.6841C113.682 19.7481 111.946 20.2801 109.781 20.2801Z" fill="white"/>
<circle cx="122.5" cy="17.5" r="2.5" fill="#FEBF19"/>
</svg>
