<svg width="34" height="34" viewBox="0 0 34 34" fill="none" xmlns="http://www.w3.org/2000/svg">
<rect width="34" height="34" rx="5" fill="#1B1B1B"/>
<path d="M23.2085 9.60577L9.11748 15.4705C9.11748 15.4705 8.45128 15.7127 8.50285 16.1593C8.5558 16.6067 9.09943 16.8114 9.09943 16.8114L12.645 18.0772C12.645 18.0772 13.7152 21.8003 13.9259 22.5087C14.1365 23.2152 14.3055 23.2319 14.3055 23.2319C14.5016 23.3223 14.6799 23.1783 14.6799 23.1783L16.9707 20.9631L20.5409 23.8671C21.5066 24.314 21.858 23.383 21.858 23.383L24.3667 9.96019C24.3667 9.06611 23.2085 9.60577 23.2085 9.60577ZM20.7138 22.3035L16.8943 19.1976L15.7091 20.3433L15.9697 17.9056L21.0609 13.0804L14.121 17.2005L11.0427 16.1018L22.7874 11.2133L20.7138 22.3035Z" fill="white"/>
</svg>
